PathFileType	4	(X/Y/Z)	7_coords_data.trc
DataRate	CameraRate	NumFrames	NumMarkers	Units	OrigDataRate	OrigDataStartFrame	OrigNumFrames
30.0	30.0	5	21	m	30.0	10	56
Frame#	Time	THUMB_TIP	THUMB_IP	THUMB_MCP	THUMB_CMC	INDEX_TIP	INDEX_DIP	INDEX_PIP	INDEX_MCP	MIDDLE_TIP	MIDDLE_DIP	MIDDLE_PIP	MIDDLE_MCP	RING_TIP	RING_DIP	RING_PIP	RING_MCP	PINKY_TIP	PINKY_DIP	PINKY_PIP	PINKY_MCP	WRIST
X1	Y1	Z1	X2	Y2	Z2	X3	Y3	Z3	X4	Y4	Z4	X5	Y5	Z5	X6	Y6	Z6	X7	Y7	Z7	X8	Y8	Z8	X9	Y9	Z9	X10	Y10	Z10	X11	Y11	Z11	X12	Y12	Z12	X13	Y13	Z13	X14	Y14	Z14	X15	Y15	Z15	X16	Y16	Z16	X17	Y17	Z17	X18	Y18	Z18	X19	Y19	Z19	X20	Y20	Z20	X21	Y21	Z21
8	0.2999999999999987	0.4834810553523664	-0.0315687829073773	-0.17307595813397486	0.4801699294022035	-0.033304153835797434	-0.15040384017638314	0.4655437593125201	-0.033216676504724485	-0.12292862414039529	0.467577967208167	-0.03285080295111986	-0.07836834884075117	0.5697292113573527	0.023185545527936724	-0.170965458174478	0.5545458050722053	0.02180019460478333	-0.16119074710970155	0.5342976316812567	0.01709660782530187	-0.14705223308813747	0.5058102006234422	-0.0011421579333221743	-0.12117850530630614	0.5956572847893419	0.042424257390101916	-0.13777283711184163	0.5800082960208506	0.036722632141916844	-0.13065942583082513	0.5546969596711673	0.027406121808914108	-0.11961639918917233	0.5195016060854064	0.006015040977390473	-0.10230002925109105	0.6011767359700689	0.035953726537348296	-0.11331336201544051	0.5857220575131851	0.030203767374636925	-0.10602701290072714	0.5642931480223331	0.02188842088943721	-0.09644385946023826	0.531147273353896	0.0023347215143980637	-0.08404528425117253	0.602794327968182	0.017410519383515566	-0.05791006962500733	0.5867450444530706	0.01149775863282998	-0.05858812490057441	0.567054861852031	0.004338715655723191	-0.05995078105296736	0.5336001558206368	-0.008358674670930988	-0.06447210544362925	0.4622830810018609	-0.023011742144276925	-0.051989820119430985
9	0.33333333333333187	0.48307915301742055	-0.03143554816064298	-0.17317329958254774	0.4798507155869709	-0.03320776155747118	-0.15049210800375779	0.4653550841470818	-0.033141577579657744	-0.12294773854573648	0.46751081776052783	-0.03282100581965597	-0.07839282808308878	0.5692032002330082	0.02394514258340741	-0.17128284263516946	0.554089671387047	0.022268556350463542	-0.16144565277089384	0.5339645979428153	0.017263371568627006	-0.14723511523130905	0.5056202759994336	-0.0010791806978786012	-0.12127772160405059	0.5949546515740751	0.04353141512188741	-0.1380876630322817	0.5794419005996179	0.03747862563359361	-0.13096598509692992	0.5543171092506606	0.02772988347341554	-0.11987020049349928	0.5193685799927988	0.006024346999204067	-0.10244556534440485	0.6008160609633928	0.03631424849280407	-0.11375714219774435	0.5854277244611421	0.03043917858654066	-0.10643029749555377	0.5640913375507159	0.021978980817564775	-0.09676781198102824	0.5310692141518282	0.0022977135968205165	-0.08424152279331198	0.60278867665685	0.017376976894874385	-0.05827735727025829	0.5867352844019579	0.01147223167079292	-0.05892741953593594	0.567039278391797	0.004317571876387372	-0.06022750010037059	0.5335639123313122	-0.008352895381976255	-0.0646707621420779	0.462283081001861	-0.023011742144276925	-0.051989820119430985
10	0.3666666666666651	0.4826353609473454	-0.03126365160277822	-0.17328392434598738	0.47950403654671525	-0.03307508658585179	-0.15059221857493266	0.4651565225791311	-0.033048957268113854	-0.12297034028599785	0.4674394267578157	-0.03278173301170029	-0.07842141280499415	0.5685977040246392	0.024719312763023638	-0.1716368840101677	0.5535586920417891	0.02277339965650671	-0.16173529117054952	0.533567612675832	0.017484141416461596	-0.14743877669833916	0.5053932874870285	-0.0009929379908598657	-0.12139187610093405	0.5941463223616198	0.04474457823175082	-0.13843804632039625	0.5787877540792352	0.03832290043554809	-0.13130527444705808	0.5538677297061113	0.02812124113182335	-0.12015502410486234	0.5192046457548066	0.006056185693657068	-0.10261216628478442	0.6004120750704137	0.036691099150141904	-0.11426436482393554	0.5850893599533835	0.030707527855043493	-0.10688796488908847	0.5638489001609693	0.02211846365594805	-0.097128312078119	0.5309650009849878	0.0022929823725162946	-0.08446654676422327	0.6027823616257952	0.017349282365033858	-0.05873684959471104	0.5867232741449335	0.011455039880166495	-0.05933985441360701	0.5670191543718107	0.004310133825653373	-0.06056867516482145	0.5335144261911176	-0.008318917865082653	-0.06490730328101013	0.4622830810018608	-0.023011742144276925	-0.051989820119430985
11	0.39999999999999825	0.482191063032659	-0.03105553514355075	-0.1733913050397357	0.47915088032571895	-0.03290283910245673	-0.15069009896622865	0.46494911718450105	-0.03293712221740708	-0.12299300979879502	0.4673637566877984	-0.032742145200545525	-0.07845065355182468	0.5680102936275236	0.025395696326372175	-0.17196834161263214	0.553040458364057	0.023245604463047242	-0.16200434958313248	0.5331655533977357	0.01773493994430575	-0.14762969959986028	0.5051504543314956	-0.0008722730364723041	-0.12150381313840741	0.5933311078449912	0.04591044469838901	-0.13878869193552318	0.578124733454086	0.03914598585656737	-0.13164668420233483	0.5534055674332281	0.028522641649885827	-0.12044324994762368	0.5190270080597547	0.006111653669155781	-0.10277943965278247	0.6000102827266218	0.03701887427490225	-0.11480670084609645	0.5847457424483581	0.03096063096778201	-0.10737087553043767	0.5635898636411052	0.02228366001808435	-0.09750583898560206	0.5308515677898917	0.0023205516444269048	-0.08468401685222215	0.6027901187105652	0.017301942725897912	-0.059247695675003986	0.586721029369585	0.01142933801843482	-0.0597925641926087	0.5670039838829203	0.0043056074839188385	-0.06093387902577185	0.5334606277899361	-0.008265360552732082	-0.06514071579949621	0.462283081001861	-0.023011742144276925	-0.051989820119430985
12	0.43333333333333146	0.48181432633639765	-0.0309314804866061	-0.17347280789995123	0.4788494490765326	-0.03279202011244697	-0.15076272434364063	0.4647600358221745	-0.032861449056645675	-0.12300838029140915	0.46729590716085523	-0.03271768985795043	-0.07847256672697034	0.567497003582562	0.025919618388354215	-0.17225687727413153	0.5525845614662269	0.023629430872175727	-0.16223818917300298	0.5327988372835899	0.017959243499861333	-0.14780267994293234	0.504922452083467	-0.0007589341980235309	-0.12160777460153471	0.592550059588211	0.04700978076214268	-0.13909690757115634	0.5774915252228472	0.03992524428549993	-0.1319519873002034	0.5529669166226611	0.028903710666798088	-0.12070570259370994	0.5188614590971449	0.006162707589290051	-0.10293458931952315	0.5996418663909695	0.03729704881245843	-0.11530920273628398	0.5844254691998775	0.03118846788376839	-0.10781610620944171	0.5633399066953882	0.02245145478803645	-0.09785399624044966	0.5307423607144947	0.00235141171385167	-0.08488830696299665	0.6028223217903397	0.017189895208444383	-0.05975930851599276	0.5867356952509588	0.011359864423336363	-0.06024012826098979	0.5669981585739118	0.004279633367564206	-0.061294639104512605	0.533410635348701	-0.00822018560125537	-0.06535865932378648	0.4622830810018609	-0.023011742144276925	-0.051989820119430985
